<?xml version="1.0" encoding="UTF-8"?><svg id="_Слой_2" xmlns="http://www.w3.org/2000/svg" width="19" height="20.61" viewBox="0 0 19 20.61"><defs><style>.cls-1{fill-rule:evenodd;}</style></defs><g id="_Слой_1-2"><path id="flag" class="cls-1" d="M2,2.77v8.87c.49-.16,1.09-.33,1.76-.45,1.8-.33,4.25-.37,6.33,1.11,1.43,1.02,3.22,1.06,4.8.77.77-.14,1.45-.36,1.93-.54.07-.02.13-.05.19-.07V3.58c-.49.16-1.09.33-1.76.45-1.8.33-4.25.37-6.33-1.11-1.43-1.02-3.22-1.06-4.8-.77-.77.14-1.45.36-1.93.54-.07.02-.13.05-.19.07ZM17.55,1.22c.31-.15.68-.14.97.04.29.18.47.5.47.85v11c0,.38-.21.73-.55.89l-.45-.89q.45.89.45.89h0s0,0,0,0h0s-.02.01-.02.01c0,0-.02,0-.03.01,0,0-.02,0-.03.01-.04.02-.11.05-.19.09-.16.07-.39.17-.67.27-.56.21-1.35.46-2.27.63-1.8.33-4.25.37-6.33-1.11-1.43-1.02-3.22-1.06-4.8-.77-.77.14-1.45.36-1.93.54-.07.02-.13.05-.19.07v5.84c0,.55-.45,1-1,1s-1-.45-1-1V2.11c0-.38.21-.73.55-.89l.45.89q-.45-.89-.45-.89h0s0,0,0,0h0s.02-.01.02-.01c.01,0,.03-.01.05-.03.04-.02.11-.05.19-.09.16-.07.39-.17.67-.27.56-.21,1.35-.46,2.27-.63,1.8-.33,4.25-.37,6.33,1.11,1.43,1.02,3.22,1.06,4.8.77.77-.14,1.45-.36,1.93-.54.24-.09.43-.17.56-.23.06-.03.11-.05.14-.06.02,0,.03-.01.03-.02h0s0,0,0,0Z"/></g></svg>